<?xml version="1.0" encoding="UTF-8" standalone="no"?>
<svg
   xmlns:dc="http://purl.org/dc/elements/1.1/"
   xmlns:cc="http://creativecommons.org/ns#"
   xmlns:rdf="http://www.w3.org/1999/02/22-rdf-syntax-ns#"
   xmlns:svg="http://www.w3.org/2000/svg"
   xmlns="http://www.w3.org/2000/svg"
   xmlns:xlink="http://www.w3.org/1999/xlink"
   id="svg8"
   version="1.1"
   viewBox="0 0 151.43195 24.751566"
   height="24.751566mm"
   width="151.43195mm">
  <defs
     id="defs2">
    <linearGradient
       id="linearGradient4564">
      <stop
         id="stop4560"
         offset="0"
         style="stop-color:#8c6046;stop-opacity:1;" />
      <stop
         id="stop4562"
         offset="1"
         style="stop-color:#8c6046;stop-opacity:0;" />
    </linearGradient>
    <linearGradient
       gradientUnits="userSpaceOnUse"
       y2="141.40675"
       x2="78.523422"
       y1="141.40675"
       x1="-72.908516"
       id="linearGradient4566"
       xlink:href="#linearGradient4564" />
  </defs>
  <metadata
     id="metadata5">
    <rdf:RDF>
      <cc:Work
         rdf:about="">
        <dc:format>image/svg+xml</dc:format>
        <dc:type
           rdf:resource="http://purl.org/dc/dcmitype/StillImage" />
        <dc:title></dc:title>
      </cc:Work>
    </rdf:RDF>
  </metadata>
  <g
     transform="translate(85.90199,-215.44041)"
     id="layer1">
    <g
       id="text4558-6"
       style="font-style:normal;font-weight:normal;font-size:30.90083122px;line-height:1.25;font-family:sans-serif;letter-spacing:0px;word-spacing:0px;fill:#434573;fill-opacity:1;stroke:none;stroke-width:0.77252084"
       aria-label="PROXIMO">
      <path
         id="path4676"
         style="font-style:normal;font-variant:normal;font-weight:bold;font-stretch:normal;font-family:Comfortaa;-inkscape-font-specification:'Comfortaa Bold';fill:#434573;fill-opacity:1;stroke-width:0.77252084"
         d="m -84.295147,239.88297 q -0.679818,0 -1.14333,-0.46352 -0.463513,-0.46351 -0.463513,-1.14333 v -20.91986 q 0,-0.71072 0.463513,-1.14333 0.463512,-0.46351 1.14333,-0.46351 h 6.180167 q 2.286661,0 4.078909,1.01972 1.823149,1.01973 2.811976,2.84288 1.019727,1.82315 1.019727,4.14071 0,2.25576 -1.019727,4.01711 -0.988827,1.76135 -2.811976,2.75017 -1.792248,0.98883 -4.078909,0.98883 h -4.573323 v 6.76728 q 0,0.67982 -0.463513,1.14333 -0.432612,0.46352 -1.143331,0.46352 z m 6.180167,-11.34061 q 2.101256,0 3.460893,-1.32874 1.359636,-1.35963 1.359636,-3.46089 0,-2.19396 -1.359636,-3.6154 -1.359637,-1.42143 -3.460893,-1.42143 h -4.573323 v 9.82646 z" />
      <path
         id="path4678"
         style="font-style:normal;font-variant:normal;font-weight:bold;font-stretch:normal;font-family:Comfortaa;-inkscape-font-specification:'Comfortaa Bold';fill:#434573;fill-opacity:1;stroke-width:0.77252084"
         d="m -50.982602,237.4109 q 0.309008,0.49441 0.309008,1.01973 0,0.61801 -0.432611,1.05062 -0.401711,0.40172 -1.11243,0.40172 -0.896124,0 -1.390538,-0.77253 l -5.314943,-8.52863 h -0.556215 -3.955306 v 7.69431 q 0,0.67982 -0.463512,1.14333 -0.432612,0.46352 -1.143331,0.46352 -0.679819,0 -1.143331,-0.46352 -0.463512,-0.46351 -0.463512,-1.14333 v -20.91986 q 0,-0.71072 0.463512,-1.14333 0.463512,-0.46351 1.143331,-0.46351 h 5.562149 q 2.286662,0 4.07891,0.95792 1.823149,0.95793 2.811976,2.68837 1.019727,1.73045 1.019727,3.95531 0,2.19396 -1.11243,3.89351 -1.11243,1.69954 -3.028281,2.56476 z m -8.497729,-9.79556 q 2.101257,0 3.460893,-1.17424 1.359637,-1.20513 1.359637,-3.09008 0,-2.03945 -1.359637,-3.33729 -1.359636,-1.29783 -3.460893,-1.29783 h -3.955306 v 8.89944 z" />
      <path
         id="path4680"
         style="font-style:normal;font-variant:normal;font-weight:bold;font-stretch:normal;font-family:Comfortaa;-inkscape-font-specification:'Comfortaa Bold';fill:#434573;fill-opacity:1;stroke-width:0.77252084"
         d="m -35.939691,240.19197 q -3.584497,0 -6.396473,-1.57594 -2.781074,-1.57594 -4.326116,-4.38792 -1.545041,-2.84287 -1.545041,-6.42737 0,-3.5845 1.545041,-6.39647 1.545042,-2.81198 4.326116,-4.38792 2.811976,-1.57594 6.396473,-1.57594 3.553595,0 6.33467,1.57594 2.811976,1.57594 4.357017,4.38792 1.575943,2.81197 1.575943,6.39647 0,3.5845 -1.575943,6.42737 -1.545041,2.81198 -4.326116,4.38792 -2.781075,1.57594 -6.365571,1.57594 z m 0,-2.90467 q 2.62657,0 4.727827,-1.23604 2.101256,-1.26693 3.275488,-3.42999 1.174231,-2.16306 1.174231,-4.82053 0,-2.65747 -1.174231,-4.82053 -1.174232,-2.16306 -3.275488,-3.39909 -2.070356,-1.23603 -4.727827,-1.23603 -2.657472,0 -4.758728,1.23603 -2.070356,1.23603 -3.244588,3.39909 -1.174231,2.16306 -1.174231,4.82053 0,2.65747 1.174231,4.82053 1.174232,2.16306 3.275488,3.42999 2.101257,1.23604 4.727828,1.23604 z" />
      <path
         id="path4682"
         style="font-style:normal;font-variant:normal;font-weight:bold;font-stretch:normal;font-family:Comfortaa;-inkscape-font-specification:'Comfortaa Bold';fill:#434573;fill-opacity:1;stroke-width:0.77252084"
         d="m -2.6034884,237.2873 q 0.3399092,0.49441 0.3399092,1.05062 0,0.61802 -0.4017108,1.08153 -0.4017108,0.46352 -1.0815291,0.46352 -0.7725208,0 -1.2360333,-0.58712 l -6.7054806,-9.30115 -7.107191,9.42475 q -0.463512,0.46352 -1.11243,0.46352 -0.679818,0 -1.081529,-0.43262 -0.37081,-0.43261 -0.37081,-1.05062 0,-0.61802 0.37081,-1.11243 l 7.199894,-9.57926 -6.798183,-9.42476 q -0.309008,-0.40171 -0.309008,-0.95792 0,-0.64892 0.40171,-1.11243 0.401711,-0.46351 1.081529,-0.46351 0.803422,0 1.143331,0.46351 l 6.643679,9.20845 6.9217861,-9.20845 q 0.4326117,-0.46351 1.1433308,-0.46351 0.6489174,0 1.0197274,0.43261 0.4017108,0.43261 0.4017108,1.05063 0,0.52531 -0.3399091,1.05062 l -7.0453896,9.39386 z" />
      <path
         id="path4684"
         style="font-style:normal;font-variant:normal;font-weight:bold;font-stretch:normal;font-family:Comfortaa;-inkscape-font-specification:'Comfortaa Bold';fill:#434573;fill-opacity:1;stroke-width:0.77252084"
         d="m 3.9412119,239.88297 q -0.6798183,0 -1.1433307,-0.46352 -0.4635125,-0.46351 -0.4635125,-1.14333 v -20.91986 q 0,-0.71072 0.4635125,-1.14333 0.4635124,-0.46351 1.1433307,-0.46351 0.7107191,0 1.1433308,0.46351 0.4635125,0.43261 0.4635125,1.14333 v 20.91986 q 0,0.67982 -0.4635125,1.14333 -0.4326117,0.46352 -1.1433308,0.46352 z" />
      <path
         id="path4686"
         style="font-style:normal;font-variant:normal;font-weight:bold;font-stretch:normal;font-family:Comfortaa;-inkscape-font-specification:'Comfortaa Bold';fill:#434573;fill-opacity:1;stroke-width:0.77252084"
         d="m 34.307076,215.74942 q 0.679818,0 1.14333,0.46351 0.463513,0.46351 0.463513,1.14333 v 20.91986 q 0,0.67982 -0.494413,1.14333 -0.463513,0.46352 -1.11243,0.46352 -0.679819,0 -1.143331,-0.46352 -0.463513,-0.46351 -0.463513,-1.14333 v -15.35771 l -7.478001,15.23411 q -0.525314,0.80342 -1.390537,0.80342 -1.019728,0 -1.48324,-0.95793 l -7.385299,-14.80149 v 15.0796 q 0,0.67982 -0.463512,1.14333 -0.463513,0.46352 -1.143331,0.46352 -0.679818,0 -1.143331,-0.46352 -0.463512,-0.46351 -0.463512,-1.14333 v -20.91986 q 0,-0.67982 0.463512,-1.14333 0.463513,-0.46351 1.143331,-0.46351 0.927025,0 1.421438,0.86522 l 9.177547,18.38599 8.93034,-18.38599 q 0.494414,-0.86522 1.421439,-0.86522 z" />
      <path
         id="path4688"
         style="font-style:normal;font-variant:normal;font-weight:bold;font-stretch:normal;font-family:Comfortaa;-inkscape-font-specification:'Comfortaa Bold';fill:#434573;fill-opacity:1;stroke-width:0.77252084"
         d="m 53.26232,240.19197 q -3.584497,0 -6.396472,-1.57594 -2.781075,-1.57594 -4.326117,-4.38792 -1.545041,-2.84287 -1.545041,-6.42737 0,-3.5845 1.545041,-6.39647 1.545042,-2.81198 4.326117,-4.38792 2.811975,-1.57594 6.396472,-1.57594 3.553595,0 6.33467,1.57594 2.811976,1.57594 4.357017,4.38792 1.575943,2.81197 1.575943,6.39647 0,3.5845 -1.575943,6.42737 -1.545041,2.81198 -4.326116,4.38792 -2.781075,1.57594 -6.365571,1.57594 z m 0,-2.90467 q 2.62657,0 4.727827,-1.23604 2.101256,-1.26693 3.275488,-3.42999 1.174232,-2.16306 1.174232,-4.82053 0,-2.65747 -1.174232,-4.82053 -1.174232,-2.16306 -3.275488,-3.39909 -2.070356,-1.23603 -4.727827,-1.23603 -2.657472,0 -4.758728,1.23603 -2.070356,1.23603 -3.244588,3.39909 -1.174231,2.16306 -1.174231,4.82053 0,2.65747 1.174231,4.82053 1.174232,2.16306 3.275488,3.42999 2.101257,1.23604 4.727828,1.23604 z" />
    </g>
  </g>
</svg>
